<?xml version="1.0" encoding="utf-8"?>
<!-- Generator: Adobe Illustrator 16.0.3, SVG Export Plug-In . SVG Version: 6.00 Build 0)  -->
<!DOCTYPE svg PUBLIC "-//W3C//DTD SVG 1.1//EN" "http://www.w3.org/Graphics/SVG/1.1/DTD/svg11.dtd">
<svg version="1.1" xmlns="http://www.w3.org/2000/svg" xmlns:xlink="http://www.w3.org/1999/xlink" x="0px" y="0px" width="70px"
	 height="70px" viewBox="0 0 24 24" enable-background="new 0 0 24 24" xml:space="preserve">
<g id="Outline_Icons">
	<g>
		<path d="M17.5,15c0.099,0,0.195-0.029,0.277-0.084l6-4c0.229-0.153,0.292-0.463,0.139-0.693c-0.154-0.231-0.466-0.291-0.693-0.139
			L17.349,14H13v-1h4.5c0.099,0,0.195-0.029,0.277-0.084l6-4c0.229-0.153,0.292-0.463,0.139-0.693
			c-0.154-0.23-0.466-0.292-0.693-0.139L17.349,12H13v-1h4.5c0.099,0,0.195-0.029,0.277-0.084l6-4
			c0.184-0.122,0.265-0.35,0.201-0.562C23.915,6.144,23.721,6,23.5,6h-4.834L18.8,5.9c0.173-0.13,0.242-0.354,0.175-0.559
			C18.906,5.138,18.715,5,18.5,5h-7c-0.108,0-0.214,0.035-0.3,0.1L10,6H6.5C6.401,6,6.305,6.029,6.223,6.084l-6,4
			c-0.184,0.122-0.265,0.35-0.201,0.561C0.085,10.855,0.279,11,0.5,11H5v1H0.5C0.224,12,0,12.224,0,12.5S0.224,13,0.5,13H5v1H0.5
			C0.224,14,0,14.224,0,14.5S0.224,15,0.5,15H5v1H0.5C0.224,16,0,16.224,0,16.5S0.224,17,0.5,17H5v1H0.5C0.224,18,0,18.224,0,18.5
			S0.224,19,0.5,19H5v0.5C5,19.776,5.224,20,5.5,20h7c0.276,0,0.5-0.224,0.5-0.5V19h4.5c0.099,0,0.195-0.029,0.277-0.084l6-4
			c0.229-0.153,0.292-0.463,0.139-0.693c-0.154-0.231-0.466-0.291-0.693-0.139L17.349,18H13v-1h4.5c0.099,0,0.195-0.029,0.277-0.084
			l6-4c0.229-0.153,0.292-0.463,0.139-0.693c-0.154-0.23-0.466-0.291-0.693-0.139L17.349,16H13v-1H17.5z M21.849,7l-4.5,3h-4.016
			l4-3H21.849z M2.151,10l4.5-3h2.016L5.2,9.6C5.074,9.694,5,9.843,5,10H2.151z M12,19H6v-8.75L11.667,6H17l-4.8,3.6
			C12.074,9.694,12,9.843,12,10V19z"/>
		<path d="M9,11.5c0.552,0,1,0.449,1,1c0,0.276,0.224,0.5,0.5,0.5s0.5-0.224,0.5-0.5c0-0.929-0.64-1.705-1.5-1.929V10
			c0-0.276-0.224-0.5-0.5-0.5S8.5,9.724,8.5,10v0.571c-0.86,0.224-1.5,1-1.5,1.929c0,1.103,0.897,2,2,2c0.552,0,1,0.449,1,1
			c0,0.551-0.448,1-1,1s-1-0.449-1-1C8,15.224,7.776,15,7.5,15S7,15.224,7,15.5c0,0.929,0.64,1.705,1.5,1.929V18
			c0,0.276,0.224,0.5,0.5,0.5s0.5-0.224,0.5-0.5v-0.571c0.86-0.224,1.5-1,1.5-1.929c0-1.104-0.897-2-2-2c-0.552,0-1-0.449-1-1
			C8,11.949,8.448,11.5,9,11.5z"/>
	</g>
</g>
		<style>
		path {
			fill: #D4771C;
		}
	</style>
<g id="Invisible_Shape">
	<rect fill="none" width="24" height="24"/>
</g>
</svg>
