<?xml version="1.0" encoding="utf-8"?>
<!-- Generator: Adobe Illustrator 16.0.3, SVG Export Plug-In . SVG Version: 6.00 Build 0)  -->
<!DOCTYPE svg PUBLIC "-//W3C//DTD SVG 1.1//EN" "http://www.w3.org/Graphics/SVG/1.1/DTD/svg11.dtd">
<svg version="1.1" xmlns="http://www.w3.org/2000/svg" xmlns:xlink="http://www.w3.org/1999/xlink" x="0px" y="0px" width="40px"
	 height="40px" viewBox="0 0 24 24" enable-background="new 0 0 24 24" xml:space="preserve">
<g id="Outline_Icons_1_">
	<g id="Outline_Icons">
		<path d="M22.5,3H21V1.5C21,1.224,20.776,1,20.5,1h-6c-1.435,0-2.445,0.475-3,1.393C10.945,1.475,9.935,1,8.5,1h-6
			C2.224,1,2,1.224,2,1.5V3H0.5C0.224,3,0,3.224,0,3.5v16C0,19.776,0.224,20,0.5,20h6c0.902,0,3,0.244,3,2.5
			c0,0.276,0.224,0.5,0.5,0.5h3c0.276,0,0.5-0.224,0.5-0.5c0-2.256,2.098-2.5,3-2.5h6c0.276,0,0.5-0.224,0.5-0.5v-16
			C23,3.224,22.776,3,22.5,3z M14.5,2H20v15h-5.5c-1.079,0-1.916,0.271-2.5,0.8V4.5C12,2.771,12.771,2,14.5,2z M3,2h5.5
			C10.229,2,11,2.771,11,4.5v13.303C10.408,17.276,9.567,17,8.5,17H3V2z M22,19h-5.5c-2.233,0-3.741,1.161-3.97,3H10.47
			c-0.229-1.839-1.736-3-3.97-3H1V4h1v13.5C2,17.776,2.224,18,2.5,18h6c1.74,0,2.516,0.771,2.516,2.5c0,0.276,0.224,0.5,0.5,0.5
			s0.5-0.224,0.5-0.5c0-1.729,0.767-2.5,2.484-2.5h6c0.276,0,0.5-0.224,0.5-0.5V4h1V19z"/>
	</g>
	<g id="New_icons_1_">
	</g>
</g>
		<style>
		path {
			fill: #555;
		}
	</style>
<g id="Invisible_Shape">
	<rect fill="none" width="24" height="24"/>
</g>
</svg>
