<?xml version="1.0" encoding="utf-8"?>
<!-- Generator: Adobe Illustrator 16.0.3, SVG Export Plug-In . SVG Version: 6.00 Build 0)  -->
<!DOCTYPE svg PUBLIC "-//W3C//DTD SVG 1.1//EN" "http://www.w3.org/Graphics/SVG/1.1/DTD/svg11.dtd">
<svg version="1.1" xmlns="http://www.w3.org/2000/svg" xmlns:xlink="http://www.w3.org/1999/xlink" x="0px" y="0px" width="60px"
	 height="60px" viewBox="0 0 24 24" enable-background="new 0 0 24 24" xml:space="preserve">
<g id="Outline_Icons">
	<g>
		<path d="M21.444,6h-1.631c-0.05-0.105-0.1-0.212-0.15-0.32C19.076,4.424,18.411,3,17,3h-5c-1.071,0-1.635,0.777-2.658,2.189
			C9.164,5.436,8.968,5.706,8.749,6H6V5.5C6,4.701,5.273,4,4.444,4H3.5C2.702,4,2.028,4.687,2.028,5.486L2.013,6.038
			C0.377,6.22,0,7.297,0,8.223v10.388C0,20.13,0.932,21,2.556,21h18.889C23.068,21,24,20.13,24,18.611V8.223
			C24,7.209,23.557,6,21.444,6z M3.5,5h0.944C4.72,5,5,5.252,5,5.5V6H3.015l0.014-0.5C3.028,5.248,3.262,5,3.5,5z M23,18.611
			C23,19.572,22.52,20,21.444,20H2.556C1.48,20,1,19.572,1,18.611V8.223C1,7.489,1.255,7,2.5,7H9c0.157,0,0.306-0.074,0.4-0.2
			c0.284-0.378,0.531-0.719,0.752-1.024C11.108,4.457,11.466,4,12,4h5c0.774,0,1.273,1.069,1.756,2.104
			c0.099,0.212,0.197,0.422,0.296,0.62C19.138,6.893,19.311,7,19.5,7h1.944C22.88,7,23,7.604,23,8.223V18.611z"/>
		<path d="M14.5,7c-3.309,0-6,2.691-6,6c0,3.309,2.691,6,6,6s6-2.691,6-6C20.5,9.691,17.809,7,14.5,7z M14.5,18
			c-2.757,0-5-2.243-5-5s2.243-5,5-5s5,2.243,5,5S17.257,18,14.5,18z"/>
		<path d="M14.5,9.5c-1.93,0-3.5,1.57-3.5,3.5s1.57,3.5,3.5,3.5S18,14.93,18,13S16.43,9.5,14.5,9.5z M14.5,15.5
			c-1.378,0-2.5-1.122-2.5-2.5s1.122-2.5,2.5-2.5S17,11.622,17,13S15.878,15.5,14.5,15.5z"/>
		<path d="M4,8c-1.103,0-2,0.897-2,2s0.897,2,2,2s2-0.897,2-2S5.103,8,4,8z M4,11c-0.551,0-1-0.449-1-1s0.449-1,1-1s1,0.449,1,1
			S4.551,11,4,11z"/>
	</g>
</g>
		<style>
		path {
			fill: #D4771C;
		}
	</style>
<g id="Invisible_Shape">
	<rect fill="none" width="24" height="24"/>
</g>
</svg>
