<?xml version="1.0" encoding="utf-8"?>
<!-- Generator: Adobe Illustrator 16.0.3, SVG Export Plug-In . SVG Version: 6.00 Build 0)  -->
<!DOCTYPE svg PUBLIC "-//W3C//DTD SVG 1.1//EN" "http://www.w3.org/Graphics/SVG/1.1/DTD/svg11.dtd">
<svg version="1.1" xmlns="http://www.w3.org/2000/svg" xmlns:xlink="http://www.w3.org/1999/xlink" x="0px" y="0px" width="40px"
	 height="40px" viewBox="0 0 24 24" enable-background="new 0 0 24 24" xml:space="preserve">
<g id="Outline_Icons">
	<g>
		<path d="M23.5,23h-1.479v-7.5c0-0.22-0.144-0.414-0.354-0.478L16,13.287V13c0-2.206-1.794-4-4-4V5h1.5C13.776,5,14,4.776,14,4.5
			S13.776,4,13.5,4H12V2.5C12,2.224,11.776,2,11.5,2S11,2.224,11,2.5V4H9.5C9.224,4,9,4.224,9,4.5S9.224,5,9.5,5H11v4.142
			c-1.72,0.448-3,2-3,3.858v0.321l-5.623,1.7C2.166,15.085,2.021,15.28,2.021,15.5V23h-1.5c-0.276,0-0.5,0.224-0.5,0.5
			s0.224,0.5,0.5,0.5H23.5c0.276,0,0.5-0.224,0.5-0.5S23.776,23,23.5,23z M3.021,15.871L8,14.365V23H3.021V15.871z M11,23v-4
			c0-0.551,0.449-1,1-1s1,0.449,1,1v4H11z M14,23v-4c0-1.103-0.897-2-2-2s-2,0.897-2,2v4H9V13c0-1.654,1.346-3,3-3s3,1.346,3,3v10
			H14z M16,23v-8.667l5.021,1.537V23H16z"/>
		<path d="M6.5,16h-2C4.224,16,4,16.224,4,16.5v2C4,18.776,4.224,19,4.5,19h2C6.776,19,7,18.776,7,18.5v-2C7,16.224,6.776,16,6.5,16
			z M6,18H5v-1h1V18z"/>
		<path d="M19.5,16h-2c-0.276,0-0.5,0.224-0.5,0.5v2c0,0.276,0.224,0.5,0.5,0.5h2c0.276,0,0.5-0.224,0.5-0.5v-2
			C20,16.224,19.776,16,19.5,16z M19,18h-1v-1h1V18z"/>
		<path d="M12.021,11c-1.103,0-2,0.897-2,2s0.897,2,2,2s2-0.897,2-2S13.125,11,12.021,11z M12.021,14c-0.551,0-1-0.449-1-1
			s0.449-1,1-1s1,0.449,1,1S12.573,14,12.021,14z"/>
	</g>
</g>
		<style>
		path {
			fill: #555;
		}
	</style>
<g id="invisible_shape">
	<rect fill="none" width="24" height="24"/>
</g>
</svg>
