<?xml version="1.0" encoding="utf-8"?>
<!-- Generator: Adobe Illustrator 16.0.3, SVG Export Plug-In . SVG Version: 6.00 Build 0)  -->
<!DOCTYPE svg PUBLIC "-//W3C//DTD SVG 1.1//EN" "http://www.w3.org/Graphics/SVG/1.1/DTD/svg11.dtd">
<svg version="1.1" xmlns="http://www.w3.org/2000/svg" xmlns:xlink="http://www.w3.org/1999/xlink" x="0px" y="0px" width="50px"
	 height="50px" viewBox="0 0 24 24" enable-background="new 0 0 24 24" xml:space="preserve">
<g id="Outline_Icons_1_">
	<g id="Outline_Icons">
	</g>
	<g id="New_icons_1_">
		<g>
			<path d="M17.5,11c-3.584,0-6.5,2.916-6.5,6.5s2.916,6.5,6.5,6.5s6.5-2.916,6.5-6.5S21.084,11,17.5,11z M17.5,23
				c-3.032,0-5.5-2.467-5.5-5.5s2.468-5.5,5.5-5.5s5.5,2.467,5.5,5.5S20.532,23,17.5,23z"/>
			<path d="M20.146,15.146L16.5,18.793l-1.646-1.646c-0.195-0.195-0.512-0.195-0.707,0s-0.195,0.512,0,0.707l2,2
				C16.244,19.951,16.372,20,16.5,20s0.256-0.049,0.354-0.146l4-4c0.195-0.195,0.195-0.512,0-0.707S20.342,14.951,20.146,15.146z"/>
			<path d="M11,23H1V3h1.5C2.776,3,3,2.776,3,2.5S2.776,2,2.5,2h-2C0.224,2,0,2.224,0,2.5v21C0,23.776,0.224,24,0.5,24H11
				c0.276,0,0.5-0.224,0.5-0.5S11.276,23,11,23z"/>
			<path d="M16.5,3H18v6.5c0,0.276,0.224,0.5,0.5,0.5S19,9.776,19,9.5v-7C19,2.224,18.776,2,18.5,2h-2C16.224,2,16,2.224,16,2.5
				S16.224,3,16.5,3z"/>
			<path d="M2.5,4C2.224,4,2,4.224,2,4.5v17C2,21.776,2.224,22,2.5,22h8c0.276,0,0.5-0.224,0.5-0.5S10.776,21,10.5,21H3V5h1v0.5
				C4,5.776,4.224,6,4.5,6h10C14.776,6,15,5.776,15,5.5V5h1v4.5c0,0.276,0.224,0.5,0.5,0.5S17,9.776,17,9.5v-5
				C17,4.224,16.776,4,16.5,4H15V2.5C15,2.224,14.776,2,14.5,2h-2.55c-0.232-1.14-1.243-2-2.45-2S7.282,0.86,7.05,2H4.5
				C4.224,2,4,2.224,4,2.5V4H2.5z M5,3h2.5C7.776,3,8,2.776,8,2.5C8,1.673,8.673,1,9.5,1S11,1.673,11,2.5C11,2.776,11.224,3,11.5,3
				H14v2H5V3z"/>
			<path d="M14,9.5C14,9.224,13.776,9,13.5,9h-8C5.224,9,5,9.224,5,9.5S5.224,10,5.5,10h8C13.776,10,14,9.776,14,9.5z"/>
			<path d="M12.5,11.5c0-0.276-0.224-0.5-0.5-0.5H5.5C5.224,11,5,11.224,5,11.5S5.224,12,5.5,12H12C12.276,12,12.5,11.776,12.5,11.5
				z"/>
			<path d="M11,13.5c0-0.276-0.224-0.5-0.5-0.5h-5C5.224,13,5,13.224,5,13.5S5.224,14,5.5,14h5C10.776,14,11,13.776,11,13.5z"/>
			<path d="M5.5,15C5.224,15,5,15.224,5,15.5S5.224,16,5.5,16H10c0.276,0,0.5-0.224,0.5-0.5S10.276,15,10,15H5.5z"/>
		</g>
	</g>
</g>
			<style>
		path {
			fill: #D4771C;
		}
	</style>
<g id="Invisible_Shape">
	<rect fill="none" width="24" height="24"/>
</g>
</svg>
