<?xml version="1.0" encoding="utf-8"?>
<!-- Generator: Adobe Illustrator 16.0.3, SVG Export Plug-In . SVG Version: 6.00 Build 0)  -->
<!DOCTYPE svg PUBLIC "-//W3C//DTD SVG 1.1//EN" "http://www.w3.org/Graphics/SVG/1.1/DTD/svg11.dtd">
<svg version="1.1" xmlns="http://www.w3.org/2000/svg" xmlns:xlink="http://www.w3.org/1999/xlink" x="0px" y="0px" width="40px"
	 height="40px" viewBox="0 0 24 24" enable-background="new 0 0 24 24" xml:space="preserve">
<g id="Outline_Icons">
	<g>
		<path d="M12,0C5.383,0,0,5.383,0,12s5.383,12,12,12s12-5.383,12-12S18.617,0,12,0z M12,23C5.935,23,1,18.066,1,12
			C1,5.935,5.935,1,12,1s11,4.935,11,11C23,18.066,18.065,23,12,23z"/>
		<path d="M17.81,5.538l-8.5,3.5c-0.024,0.01-0.039,0.032-0.061,0.044C9.214,9.104,9.182,9.124,9.153,9.153
			c-0.029,0.029-0.05,0.061-0.071,0.095C9.069,9.271,9.047,9.286,9.038,9.31l-3.5,8.5c-0.077,0.187-0.034,0.401,0.109,0.544
			C5.742,18.449,5.87,18.5,6,18.5c0.064,0,0.129-0.012,0.19-0.038l8.5-3.5c0.024-0.009,0.039-0.031,0.061-0.044
			c0.035-0.021,0.067-0.042,0.096-0.071c0.029-0.029,0.05-0.061,0.071-0.096c0.013-0.022,0.035-0.037,0.044-0.061l3.5-8.5
			c0.077-0.187,0.034-0.401-0.109-0.544C18.211,5.504,17.997,5.462,17.81,5.538z M6.919,17.081l2.757-6.697l3.939,3.939
			L6.919,17.081z M14.323,13.616l-3.939-3.939l6.697-2.757L14.323,13.616z"/>
	</g>
</g>
		<style>
		path {
			fill: #555;
		}
	</style>
<g id="invisible_shape">
	<rect fill="none" width="24" height="24"/>
</g>
</svg>
