<?xml version="1.0" encoding="utf-8"?>
<!-- Generator: Adobe Illustrator 16.0.3, SVG Export Plug-In . SVG Version: 6.00 Build 0)  -->
<!DOCTYPE svg PUBLIC "-//W3C//DTD SVG 1.1//EN" "http://www.w3.org/Graphics/SVG/1.1/DTD/svg11.dtd">
<svg version="1.1" xmlns="http://www.w3.org/2000/svg" xmlns:xlink="http://www.w3.org/1999/xlink" x="0px" y="0px" width="40px"
	 height="40px" viewBox="0 0 24 24" enable-background="new 0 0 24 24" xml:space="preserve">
<g id="Outline_Icons">
	<path d="M20.5,9c0.133,0,0.26-0.053,0.354-0.146l3-3c0.195-0.195,0.195-0.512,0-0.707l-3-3C20.76,2.053,20.633,2,20.5,2H12V0.5
		C12,0.224,11.776,0,11.5,0S11,0.224,11,0.5V2H3.5C3.224,2,3,2.224,3,2.5v6C3,8.776,3.224,9,3.5,9H11v1H3.5
		c-0.133,0-0.26,0.053-0.354,0.146l-3,3c-0.195,0.195-0.195,0.512,0,0.707l3,3C3.24,16.947,3.367,17,3.5,17H11v6.5
		c0,0.276,0.224,0.5,0.5,0.5s0.5-0.224,0.5-0.5V17h8.5c0.276,0,0.5-0.224,0.5-0.5v-6c0-0.276-0.224-0.5-0.5-0.5H12V9H20.5z M20,16
		H3.707l-2.5-2.5l2.5-2.5H20V16z M4,3h16.293l2.5,2.5l-2.5,2.5H4V3z"/>
</g>
		<style>
		path {
			fill: #555;
		}
	</style>
<g id="invisible_shape">
	<rect fill="none" width="24" height="24"/>
</g>
</svg>
