<?xml version="1.0" encoding="utf-8"?>
<!-- Generator: Adobe Illustrator 19.2.1, SVG Export Plug-In . SVG Version: 6.00 Build 0)  -->
<svg version="1.1" xmlns="http://www.w3.org/2000/svg" xmlns:xlink="http://www.w3.org/1999/xlink" x="0px" y="0px" width="24px"
	 height="24px" viewBox="0 0 24 24" enable-background="new 0 0 24 24" xml:space="preserve">
<g id="Filled_Icons_1_">
	<g id="Filled_Icons">
		<g>
			<path d="M7.5,3h2C9.776,3,10,2.776,10,2.5C10,2.224,9.776,2,9.5,2h-2C7.224,2,7,2.224,7,2.5C7,2.776,7.224,3,7.5,3z"/>
			<path d="M16.5,5h-7C9.224,5,9,5.224,9,5.5C9,5.776,9.224,6,9.5,6h7C16.776,6,17,5.776,17,5.5C17,5.224,16.776,5,16.5,5z"/>
			<path d="M16.5,8h-9C7.224,8,7,8.224,7,8.5C7,8.776,7.224,9,7.5,9h9C16.776,9,17,8.776,17,8.5C17,8.224,16.776,8,16.5,8z"/>
			<path d="M16.5,11h-9C7.224,11,7,11.224,7,11.5C7,11.776,7.224,12,7.5,12h9c0.276,0,0.5-0.224,0.5-0.5
				C17,11.224,16.776,11,16.5,11z"/>
			<path d="M17.776,15.917c-0.23,0.153-0.54,0.091-0.693-0.139c-0.153-0.229-0.091-0.54,0.139-0.693l6.283-4.189L20,8.487V0.5
				C20,0.224,19.776,0,19.5,0h-15C4.224,0,4,0.224,4,0.5v7.987l-3.504,2.41l6.283,4.189c0.23,0.153,0.292,0.464,0.139,0.693
				c-0.153,0.229-0.463,0.292-0.693,0.139L0,11.768V22c0,1.103,0.897,2,2,2h20c1.103,0,2-0.897,2-2V11.768L17.776,15.917z M5,13V1
				h14v12H5z M20.891,20.812c-0.173,0.216-0.487,0.25-0.703,0.078L15.325,17H8.675l-4.863,3.891
				c-0.216,0.173-0.53,0.136-0.703-0.078c-0.172-0.216-0.137-0.53,0.078-0.703l5-4C8.276,16.039,8.386,16,8.5,16h7
				c0.114,0,0.224,0.039,0.312,0.109l5,4.001C21.028,20.282,21.063,20.597,20.891,20.812z"/>
		</g>
	</g>
	<g id="New_icons">
	</g>
</g>
<g id="Invisible_Shape">
	<rect fill="none" width="24" height="24"/>
</g>
</svg>
