<?xml version="1.0" encoding="utf-8"?>
<!-- Generator: Adobe Illustrator 16.0.3, SVG Export Plug-In . SVG Version: 6.00 Build 0)  -->
<!DOCTYPE svg PUBLIC "-//W3C//DTD SVG 1.1//EN" "http://www.w3.org/Graphics/SVG/1.1/DTD/svg11.dtd">
<svg version="1.1" xmlns="http://www.w3.org/2000/svg" xmlns:xlink="http://www.w3.org/1999/xlink" x="0px" y="0px" width="50px"
	 height="50px" viewBox="0 0 24 24" enable-background="new 0 0 24 24" xml:space="preserve">
<g id="Outline_Icons_1_">
	<g id="Outline_Icons">
		<path d="M23.301,0.042l-23,10C0.125,10.118,0.008,10.289,0,10.48c-0.007,0.192,0.096,0.372,0.266,0.462L8.63,15.37l4.428,8.364
			C13.145,23.898,13.315,24,13.5,24c0.006,0,0.013,0,0.019,0c0.192-0.008,0.363-0.124,0.439-0.301l10-23
			C24.113,0.329,23.775-0.117,23.301,0.042z M21.284,2.009L8.908,14.385l-7.255-3.841L21.284,2.009z M13.456,22.348l-3.841-7.255
			L21.991,2.716L13.456,22.348z"/>
	</g>
	<g id="New_icons_1_">
	</g>
</g>
	<style>
		path {
			fill: #D4771C;
		}
	</style>
<g id="Invisible_Shape">
	<rect fill="none" width="24" height="24"/>
</g>
</svg>
