<?xml version="1.0" encoding="utf-8"?>
<!-- Generator: Adobe Illustrator 16.0.3, SVG Export Plug-In . SVG Version: 6.00 Build 0)  -->
<!DOCTYPE svg PUBLIC "-//W3C//DTD SVG 1.1//EN" "http://www.w3.org/Graphics/SVG/1.1/DTD/svg11.dtd">
<svg version="1.1" xmlns="http://www.w3.org/2000/svg" xmlns:xlink="http://www.w3.org/1999/xlink" x="0px" y="0px" width="40px"
	 height="40px" viewBox="0 0 24 24" enable-background="new 0 0 24 24" xml:space="preserve">
<g id="Outline_Icons_1_">
	<g id="Outline_Icons">
		<g>
			<path d="M17.5,0h-11C5.122,0,4,1.121,4,2.5v19C4,22.879,5.122,24,6.5,24h11c1.378,0,2.5-1.121,2.5-2.5v-19
				C20,1.121,18.878,0,17.5,0z M5,5h14v14H5V5z M6.5,1h11C18.327,1,19,1.673,19,2.5V4H5V2.5C5,1.673,5.673,1,6.5,1z M17.5,23h-11
				C5.673,23,5,22.327,5,21.5V20h14v1.5C19,22.327,18.327,23,17.5,23z"/>
			<path d="M9.5,3h5C14.776,3,15,2.776,15,2.5S14.776,2,14.5,2h-5C9.224,2,9,2.224,9,2.5S9.224,3,9.5,3z"/>
			<path d="M12,20.5c-0.551,0-1,0.448-1,1s0.449,1,1,1s1-0.448,1-1S12.551,20.5,12,20.5z M12,21.5L12,21.5h0.5H12z"/>
		</g>
	</g>
	<g id="New_icons_1_">
	</g>
</g>
		<style>
		path {
			fill: #fff;
		}
	</style>
<g id="Invisible_Shape">
	<rect fill="none" width="24" height="24"/>
</g>
</svg>
