<?xml version="1.0" encoding="utf-8"?>
<!-- Generator: Adobe Illustrator 16.0.3, SVG Export Plug-In . SVG Version: 6.00 Build 0)  -->
<!DOCTYPE svg PUBLIC "-//W3C//DTD SVG 1.1//EN" "http://www.w3.org/Graphics/SVG/1.1/DTD/svg11.dtd">
<svg version="1.1" xmlns="http://www.w3.org/2000/svg" xmlns:xlink="http://www.w3.org/1999/xlink" x="0px" y="0px" width="40px"
	 height="40px" viewBox="0 0 24 24" enable-background="new 0 0 24 24" xml:space="preserve">
<g id="Outline_Icons">
	<g>
		<path d="M23.512,9h-23c-0.276,0-0.5,0.224-0.5,0.5v2c0,0.276,0.224,0.5,0.5,0.5h0.582L3.02,22.59C3.063,22.827,3.271,23,3.512,23
			h17c0.241,0,0.448-0.173,0.492-0.41L22.93,12h0.582c0.276,0,0.5-0.224,0.5-0.5v-2C24.012,9.224,23.788,9,23.512,9z M20.095,22
			H3.929L2.11,12h19.803L20.095,22z M23.012,11h-0.5h-21h-0.5v-1h22V11z"/>
		<path d="M3.512,8C3.64,8,3.768,7.951,3.865,7.854l6-6c0.195-0.195,0.195-0.512,0-0.707s-0.512-0.195-0.707,0l-6,6
			c-0.195,0.195-0.195,0.512,0,0.707C3.256,7.951,3.384,8,3.512,8z"/>
		<path d="M20.158,7.854C20.256,7.951,20.384,8,20.512,8s0.256-0.049,0.354-0.146c0.195-0.195,0.195-0.512,0-0.707l-6-6
			c-0.195-0.195-0.512-0.195-0.707,0s-0.195,0.512,0,0.707L20.158,7.854z"/>
		<path d="M13.512,20c0.276,0,0.5-0.224,0.5-0.5v-6c0-0.276-0.224-0.5-0.5-0.5s-0.5,0.224-0.5,0.5v6
			C13.012,19.776,13.235,20,13.512,20z"/>
		<path d="M17.512,20c0.276,0,0.5-0.224,0.5-0.5v-6c0-0.276-0.224-0.5-0.5-0.5s-0.5,0.224-0.5,0.5v6
			C17.012,19.776,17.235,20,17.512,20z"/>
		<path d="M10.512,20c0.276,0,0.5-0.224,0.5-0.5v-6c0-0.276-0.224-0.5-0.5-0.5s-0.5,0.224-0.5,0.5v6
			C10.012,19.776,10.235,20,10.512,20z"/>
		<path d="M6.512,20c0.276,0,0.5-0.224,0.5-0.5v-6c0-0.276-0.224-0.5-0.5-0.5s-0.5,0.224-0.5,0.5v6C6.012,19.776,6.235,20,6.512,20z
			"/>
	</g>
</g>
	<style>
		path {
			fill: #555;
		}
	</style>
<g id="Invisible_Shape">
	<rect fill="none" width="24" height="24"/>
</g>
</svg>
