<?xml version="1.0" encoding="utf-8"?>
<!-- Generator: Adobe Illustrator 16.0.3, SVG Export Plug-In . SVG Version: 6.00 Build 0)  -->
<!DOCTYPE svg PUBLIC "-//W3C//DTD SVG 1.1//EN" "http://www.w3.org/Graphics/SVG/1.1/DTD/svg11.dtd">
<svg version="1.1" xmlns="http://www.w3.org/2000/svg" xmlns:xlink="http://www.w3.org/1999/xlink" x="0px" y="0px" width="50px"
	 height="50px" viewBox="0 0 24 24" enable-background="new 0 0 24 24" xml:space="preserve">
<g id="Outline_Icons">
	<g>
		<path d="M18.5,13c-3.033,0-5.5,2.467-5.5,5.5s2.467,5.5,5.5,5.5s5.5-2.467,5.5-5.5S21.533,13,18.5,13z M18.5,23
			c-2.481,0-4.5-2.018-4.5-4.5c0-2.481,2.019-4.5,4.5-4.5s4.5,2.019,4.5,4.5C23,20.982,20.981,23,18.5,23z"/>
		<path d="M18.5,16.623c0.363,0,0.659,0.295,0.659,0.659c0,0.276,0.224,0.5,0.5,0.5s0.5-0.224,0.5-0.5
			c0-0.739-0.489-1.359-1.159-1.573V15.35c0-0.276-0.224-0.5-0.5-0.5s-0.5,0.224-0.5,0.5v0.358c-0.67,0.214-1.159,0.834-1.159,1.573
			c0,0.916,0.744,1.661,1.659,1.661c0.363,0,0.659,0.295,0.659,0.658c0,0.365-0.296,0.661-0.659,0.661s-0.659-0.296-0.659-0.661
			c0-0.276-0.224-0.5-0.5-0.5s-0.5,0.224-0.5,0.5c0,0.741,0.489,1.362,1.159,1.576v0.356c0,0.276,0.224,0.5,0.5,0.5
			s0.5-0.224,0.5-0.5v-0.356c0.67-0.213,1.159-0.835,1.159-1.576c0-0.914-0.744-1.658-1.659-1.658c-0.363,0-0.659-0.296-0.659-0.661
			C17.841,16.918,18.137,16.623,18.5,16.623z"/>
		<path d="M12.5,23H4V12.5C4,12.224,3.776,12,3.5,12S3,12.224,3,12.5v11C3,23.776,3.223,24,3.5,24h9c0.276,0,0.5-0.224,0.5-0.5
			S12.776,23,12.5,23z"/>
		<path d="M23.163,12.369c0.096,0.088,0.216,0.131,0.337,0.131c0.135,0,0.271-0.055,0.369-0.163c0.187-0.204,0.172-0.52-0.032-0.706
			l-11.5-10.5c-0.19-0.175-0.483-0.175-0.674,0l-11.5,10.5c-0.204,0.186-0.219,0.502-0.032,0.706
			c0.188,0.205,0.502,0.219,0.706,0.032L12,2.177L23.163,12.369z"/>
		<path d="M16,3h3v3c0,0.276,0.224,0.5,0.5,0.5S20,6.276,20,6V2.5C20,2.224,19.776,2,19.5,2H16c-0.276,0-0.5,0.224-0.5,0.5
			S15.723,3,16,3z"/>
		<path d="M10.5,6C10.223,6,10,6.224,10,6.5v3c0,0.276,0.224,0.5,0.5,0.5h3c0.276,0,0.5-0.224,0.5-0.5v-3C14,6.224,13.776,6,13.5,6
			H10.5z M13,9h-2V7h2V9z"/>
	</g>
</g>
		<style>
		path {
			fill: #D4771C;
		}
	</style>
<g id="invisible_shape">
	<rect fill="none" width="24" height="24"/>
</g>
</svg>
