<?xml version="1.0" encoding="utf-8"?>
<!-- Generator: Adobe Illustrator 16.0.3, SVG Export Plug-In . SVG Version: 6.00 Build 0)  -->
<!DOCTYPE svg PUBLIC "-//W3C//DTD SVG 1.1//EN" "http://www.w3.org/Graphics/SVG/1.1/DTD/svg11.dtd">
<svg version="1.1" xmlns="http://www.w3.org/2000/svg" xmlns:xlink="http://www.w3.org/1999/xlink" x="0px" y="0px" width="50px"
	 height="50px" viewBox="0 0 24 24" enable-background="new 0 0 24 24" xml:space="preserve">
<g id="Outline_Icons">
	<g>
		<path d="M13.5,23H4V12.5C4,12.224,3.776,12,3.5,12S3,12.224,3,12.5v11C3,23.776,3.223,24,3.5,24h10c0.276,0,0.5-0.224,0.5-0.5
			S13.776,23,13.5,23z"/>
		<path d="M23.836,11.631l-11.5-10.5c-0.19-0.175-0.483-0.175-0.674,0l-11.5,10.5c-0.204,0.186-0.219,0.502-0.032,0.706
			c0.187,0.205,0.502,0.219,0.706,0.032L12,2.177l11.163,10.192c0.096,0.088,0.216,0.131,0.337,0.131
			c0.135,0,0.271-0.055,0.369-0.163C24.055,12.133,24.041,11.817,23.836,11.631z"/>
		<path d="M16,3h3v3c0,0.276,0.224,0.5,0.5,0.5S20,6.276,20,6V2.5C20,2.224,19.776,2,19.5,2H16c-0.276,0-0.5,0.224-0.5,0.5
			S15.723,3,16,3z"/>
		<path d="M13.5,10c0.276,0,0.5-0.224,0.5-0.5v-3C14,6.224,13.776,6,13.5,6h-3C10.223,6,10,6.224,10,6.5v3
			c0,0.276,0.224,0.5,0.5,0.5H13.5z M11,7h2v2h-2V7z"/>
		<path d="M18,12c-2.481,0-4.5,2.019-4.5,4.5c0,2.322,3.695,6.816,4.116,7.32C17.71,23.934,17.851,24,18,24s0.289-0.066,0.384-0.18
			c0.421-0.504,4.116-4.998,4.116-7.32C22.5,14.019,20.481,12,18,12z M18,22.707c-1.245-1.567-3.5-4.716-3.5-6.207
			c0-1.93,1.57-3.5,3.5-3.5s3.5,1.57,3.5,3.5C21.5,17.991,19.244,21.14,18,22.707z"/>
		<path d="M18,14.5c-1.103,0-2,0.897-2,2s0.897,2,2,2s2-0.897,2-2S19.103,14.5,18,14.5z M18,17.5c-0.551,0-1-0.449-1-1s0.449-1,1-1
			s1,0.449,1,1S18.551,17.5,18,17.5z"/>
	</g>
</g>

			<style>
		path {
			fill: white;
		}
	</style>
<g id="invisible_shape">
	<rect fill="none" width="24" height="24"/>
</g>
</svg>
